<?xml version="1.0" encoding="iso-8859-1"?>
<!-- Generator: Adobe Illustrator 17.1.0, SVG Export Plug-In . SVG Version: 6.00 Build 0)  -->
<!DOCTYPE svg PUBLIC "-//W3C//DTD SVG 1.1//EN" "http://www.w3.org/Graphics/SVG/1.1/DTD/svg11.dtd">
<svg version="1.1" id="Capa_1" xmlns="http://www.w3.org/2000/svg" xmlns:xlink="http://www.w3.org/1999/xlink" x="0px" y="0px"
	 viewBox="0 0 420 420" style="enable-background:new 0 0 420 420;" xml:space="preserve">
<path d="M420,175.666c0-5.522-4.477-10-10-10h-62.255l61.743-65.602c14.322-15.22,13.951-39.624-0.827-54.401
	c-14.777-14.777-39.181-15.147-54.401-0.826l-128.383,120.83H10c-5.523,0-10,4.478-10,10c0,83.848,49.402,156.363,120.622,190.001
	H120c-5.523,0-10,4.478-10,10c0,5.522,4.477,10,10,10h180c5.523,0,10-4.478,10-10c0-5.522-4.477-10-10-10h-0.622
	C370.598,332.03,420,259.514,420,175.666z M367.967,59.401c7.304-6.87,19.462-6.687,26.552,0.404
	c7.091,7.09,7.275,19.25,0.404,26.552l-74.643,79.31h-65.221L367.967,59.401z M210,365.666c-101.409,0-184.518-79.867-189.74-180
	h209.565c0.007,0,0.013,0.001,0.02,0.001c0.007,0,0.014-0.001,0.021-0.001H399.74C394.518,285.799,311.409,365.666,210,365.666z"/>
<g>
</g>
<g>
</g>
<g>
</g>
<g>
</g>
<g>
</g>
<g>
</g>
<g>
</g>
<g>
</g>
<g>
</g>
<g>
</g>
<g>
</g>
<g>
</g>
<g>
</g>
<g>
</g>
<g>
</g>
</svg>
