<svg id="Capa_1" enable-background="new 0 0 512 512" height="512" viewBox="0 0 512 512" width="512" xmlns="http://www.w3.org/2000/svg"><g><path d="m353.529 327.34c4.142 0 7.5-3.358 7.5-7.5v-177.34c0-4.142-3.358-7.5-7.5-7.5h-15v-15h7.343c6.564 0 12.148-4.021 14.226-10.242 2.081-6.231.03-12.809-5.225-16.759-18.995-14.28-53.643-30.808-91.344-32.799v-16.485c8.73-3.095 15-11.437 15-21.215 0-12.407-10.093-22.5-22.5-22.5s-22.5 10.093-22.5 22.5c0 9.778 6.27 18.12 15 21.215v16.479c-12.59.65-25.467 2.923-38.383 6.783-3.969 1.186-6.225 5.365-5.039 9.333s5.363 6.222 9.333 5.039c14.099-4.213 28.091-6.35 41.588-6.35 36.862 0 71.43 16.154 89.831 29.988.005.003.009.007.014.01-.002.002-179.865-.009-179.862-.01 4.432-3.332 12.006-8.414 22.921-13.706 3.728-1.807 5.284-6.293 3.478-10.021-1.807-3.728-6.294-5.286-10.021-3.477-11.998 5.816-20.43 11.483-25.392 15.213-5.255 3.951-7.306 10.529-5.225 16.76 2.078 6.222 7.662 10.242 14.226 10.242h7.531v15h-15c-4.142 0-7.5 3.358-7.5 7.5v94.941c0 4.142 3.358 7.5 7.5 7.5s7.5-3.358 7.5-7.5v-87.439h30v197h-30v-79.559c0-4.142-3.358-7.5-7.5-7.5s-7.5 3.358-7.5 7.5v87.059c0 4.142 3.358 7.5 7.5 7.5h45c4.142 0 7.5-3.358 7.5-7.5v-57.16h15v87.16c0 4.142 3.358 7.5 7.5 7.5h15v16.633c-17.469 7.184-37.113 36.614-37.113 58.754 0 24.6 20.014 44.613 44.613 44.613s44.613-20.013 44.613-44.613c0-12.145-5.555-26.581-15.241-39.605-8.667-11.654-16.394-16.812-21.873-19.07v-16.712h15c4.142 0 7.5-3.358 7.5-7.5v-87.16h15v117.16c0 4.142 3.358 7.5 7.5 7.5h45c4.142 0 7.5-3.358 7.5-7.5v-64.66c0-4.142-3.358-7.5-7.5-7.5s-7.5 3.358-7.5 7.5v57.16h-30v-257h30v169.84c.001 4.142 3.359 7.5 7.501 7.5zm-97.5-297.34c-4.136 0-7.5-3.364-7.5-7.5s3.364-7.5 7.5-7.5 7.5 3.364 7.5 7.5-3.364 7.5-7.5 7.5zm-30 252.34h-15v-15h15zm0-139.84v109.84h-15v-109.84c0-4.142-3.358-7.5-7.5-7.5h-15v-15h59.906v15h-14.906c-4.142 0-7.5 3.358-7.5 7.5zm59.613 324.887c0 16.329-13.285 29.613-29.613 29.613s-29.613-13.285-29.613-29.613c0-8.857 4.59-20.316 12.277-30.654 8.197-11.023 15.337-14.733 17.336-14.733 7.017 0 29.613 24.657 29.613 45.387zm-14.613-90.387h-30v-227h30zm30-94.66h-15v-15h15zm22.5-147.34h-15c-4.142 0-7.5 3.358-7.5 7.5v109.84h-15v-109.84c0-4.142-3.358-7.5-7.5-7.5h-15.094v-15h60.094z"/></g></svg>