<svg id="Layer_1" enable-background="new 0 0 511.975 511.975" height="512" viewBox="0 0 511.975 511.975" width="512" xmlns="http://www.w3.org/2000/svg"><g><path d="m510.194 245.997c2.844-6.593 2.256-14.155-1.574-20.231-3.834-6.082-10.413-9.878-17.599-10.156-23.998-.925-52.108-2.77-84.028-5.51l-2.686-87.686c7.292-16.991 4.705-23.973.648-28.028-20.921-23.891-129.004 70.353-158.653 98.32-11.801-1.495-21.032-2.71-27.116-3.524-14.382-11.114-33.329-20.402-58.378-28.819-9.496-2.864-14.076 10.773-4.777 14.219 33.285 11.184 54.581 23.655 68.069 39.993-22.393 23.281-35.847 41.853-41.025 56.598-1.451 4.13-2.28 8.052-2.531 11.795l-26.858 11.377c-3.782-.603-7.649-1.403-11.571-2.431l-22.48-52.092c-1.028-2.385-3.218-4.067-5.787-4.447-2.569-.385-5.152.594-6.828 2.579l-15.994 18.934c-5.48-7.305-9.565-14.55-12.471-20.56 3.638-4.586 7.101-8.995 10.969-13.755 12.719-15.652 16.752-36.399 10.527-54.144-.334-.951-.702-1.874-1.089-2.783 7.283-.715 15.575-.443 24.466.826 4.108.587 7.901-2.264 8.485-6.365.585-4.101-2.265-7.899-6.364-8.485-13.509-1.928-25.602-1.831-36.021.273-4.289-4.022-9.37-6.815-14.904-8.015-7.381-1.6-15.28-1.219-23.025.91-2.289-9.504-3.221-24.034 4.324-41.075 1.678-3.788-.033-8.217-3.821-9.895-3.788-1.675-8.218.033-9.894 3.821-9.853 22.252-7.833 41.271-4.58 53.026-.45.26-.899.524-1.345.796-4.607-8.814-8.371-21.439-6.366-37.906.5-4.112-2.428-7.851-6.539-8.351-4.109-.5-7.852 2.427-8.352 6.539-2.61 21.444 3.16 37.783 8.652 47.92-10.93 3.43-18.403 15.188-16.261 26.935-.292.717-.576 1.437-.846 2.155-10.774 27.415-10.534 68.422 17.864 80.028 3.317 1.251 6.602 1.878 9.876 1.878 6.939 0 13.826-2.818 20.839-8.493 4.329-3.503 8.612-7.989 13.057-13.164 3.315 6.092 7.577 12.861 12.919 19.604l-44.302 52.445-26.758 10.089c-3.875 1.461-5.833 5.788-4.371 9.664 1.133 3.005 3.987 4.856 7.019 4.856.88 0 1.773-.156 2.646-.484l28.582-10.778c1.196-.451 2.258-1.201 3.083-2.178l44.222-52.35c10.251 10.042 23.303 19.061 39.733 24.419 1.199.391 2.394.755 3.587 1.105.002 0 .004.001.006.002 20.62 5.896 38.755 6.567 57.59 4.543 5.943 5.442 12.483 8.424 19.886 8.839 6.225 4.521 13.8 8.874 22.502 12.972l13.547 53.116c.501 1.963 1.774 3.64 3.53 4.649l33.062 19.003c1.178.677 2.463.999 3.731.999 2.597 0 5.122-1.351 6.509-3.764 2.064-3.591.827-8.176-2.765-10.24l-30.315-17.424-9.961-39.056c21.87 8.22 48.374 14.979 76.961 19.397 23.924 3.661 46.108 5.358 67.834 5.072l1.187 38.743c.097 3.164 2.169 5.925 5.179 6.903l36.639 11.906c3.833 1.277 8.18-.838 9.451-4.815 1.28-3.939-.876-8.17-4.816-9.451l-31.623-10.276-1.03-33.612c6.002-.4 11.748-.987 17.18-1.768 4.1-.59 6.945-4.392 6.356-8.492-.591-4.1-4.393-6.949-8.492-6.355-4.905.706-10.087 1.246-15.503 1.62l-.594-19.391c15.298-2.618 29.429-7.707 42.312-15.248 8.029 6.042 12.38 11.962 11.735 16.137-.512 3.314-4.19 6.108-7.186 7.869-3.571 2.099-4.764 6.695-2.665 10.266 2.111 3.603 6.758 4.745 10.267 2.665 8.428-4.955 13.276-11.182 14.408-18.509 1.418-9.175-3.146-18.303-13.543-27.213.635-.489 1.28-.959 1.908-1.463 22.402-17.944 35.389-40.913 42.34-57.023zm-479.016-72.531c5.021 0 9.106 4.082 9.106 9.099-.428 12.042-17.785 12.04-18.21 0-.001-5.017 4.083-9.099 9.104-9.099zm-1.451 81.282c-6.831-2.576-11.716-9.849-13.755-20.48-1.824-9.51-1.145-20.5 1.867-31.642 26.532 16.316 51.965-19.835 27.838-39.298 8.42-4.735 17.626-6.553 25.766-4.788 6.356 1.378 11.622 6.793 14.451 14.856 3.537 10.082 3.289 25.81-8.013 39.72-15.152 18.524-35.453 48.741-48.154 41.632zm362.218-45.98c-13.715-1.25-28.079-2.654-43.066-4.209 14.906-18.393 29.433-37.707 41.215-56.215zm-133.263 89.28c10.069-7.824 21.21-17.892 33.631-30.309 14.65-14.646 30.242-31.754 45.076-49.303 19.339 2.054 37.693 3.867 55.019 5.436l2.8 91.397c-7.619.533-15.745.46-24.416-.333-39.014-3.569-76.65-9.241-112.11-16.888zm-57.364-.099c-1.774-1.773-3.244-3.608-4.278-5.677l24.767-10.491 4.815 18.877c-15.703 6.876-21.638.956-25.304-2.709zm40.834-80.353c28.97-30.501 123.714-109.715 151.744-112.15-10.574 44.474-108.686 156.739-153.749 187.552l-5.963-23.38c-.54-2.118-1.978-3.896-3.937-4.866-1.96-.972-4.245-1.039-6.256-.187l-26.659 11.292c5.004-13.93 20.078-33.528 44.82-58.261zm-131.49 39.292 11.907 27.592c-8.42-4.452-15.578-10.064-21.612-16.103zm133.888 53.371c15.193 3.493 30.799 6.622 46.756 9.378l-3.986 14.855c-14.81-3.936-28.379-8.509-40.03-13.487zm57.343 27.806 4.289-15.984c14.68 2.291 29.629 4.274 44.808 5.935l-4.737 17.656c-14.711-1.739-30.187-4.397-44.36-7.607zm94.333 10.442c-11.003.156-22.712-.279-34.856-1.295l4.737-17.656c1.107.105 2.21.216 3.319.317 8.903.811 17.5.984 26.241.397zm11.229-123.313c31.44 2.678 59.204 4.489 82.987 5.407 2.274.087 4.275 1.242 5.488 3.166 1.208 1.917 1.387 4.21.489 6.289-10.885 25.228-35.475 63.645-86.264 73.296z"/></g></svg>