<svg width="20" height="20" viewBox="0 0 20 20" fill="none" xmlns="http://www.w3.org/2000/svg">
<g clip-path="url(#clip0)">
<path d="M9.99999 3.00845C5.7947 3.00845 2.3733 6.42988 2.3733 10.6351C2.3733 14.8407 5.79474 18.2621 9.99999 18.2621C14.2055 18.2621 17.6267 14.8406 17.6267 10.6351C17.6267 6.42988 14.2053 3.00845 9.99999 3.00845ZM9.99999 16.8798C6.55692 16.8798 3.75576 14.0785 3.75576 10.6354C3.75576 7.19234 6.55688 4.39118 9.99999 4.39118C13.4431 4.39118 16.2442 7.19234 16.2442 10.6354C16.2442 14.0787 13.4431 16.8798 9.99999 16.8798Z" fill="#0D2D31"/>
<path d="M12.1198 10.4048H10.2765V7.73196C10.2765 7.35016 9.96708 7.04071 9.58528 7.04071C9.20349 7.04071 8.89403 7.35016 8.89403 7.73196V11.096C8.89403 11.4778 9.20349 11.7873 9.58528 11.7873H12.1198C12.5016 11.7873 12.8111 11.4778 12.8111 11.096C12.811 10.7142 12.5016 10.4048 12.1198 10.4048Z" fill="#0D2D31"/>
<path d="M6.08459 15.5824C5.80072 15.3268 5.36361 15.3501 5.10834 15.6338L3.0346 17.9379C2.77905 18.2215 2.80233 18.6586 3.08596 18.9139C3.218 19.0331 3.38342 19.0916 3.54819 19.0916C3.73737 19.0916 3.92584 19.0144 4.06225 18.8626L6.13599 16.5584C6.3915 16.2748 6.36822 15.8377 6.08459 15.5824Z" fill="#0D2D31"/>
<path d="M16.9656 17.9381L14.8919 15.634C14.6371 15.3501 14.1998 15.3271 13.9158 15.5826C13.632 15.8379 13.6092 16.275 13.8645 16.5587L15.9382 18.8628C16.0744 19.0144 16.2629 19.0916 16.452 19.0916C16.6166 19.0916 16.782 19.0331 16.9143 18.9142C17.1981 18.6589 17.2209 18.2217 16.9656 17.9381Z" fill="#0D2D31"/>
<path d="M5.96725 1.91585C4.59374 0.570931 2.37972 0.573001 1.03203 1.92093C0.361489 2.5912 -0.00487642 3.47807 -3.26874e-05 4.41814C0.00504542 5.34693 0.373247 6.21653 1.03707 6.86676C1.17164 6.99833 1.34606 7.06399 1.5207 7.06399C1.69766 7.06399 1.87461 6.99626 2.00941 6.86169L5.97252 2.89858C6.10295 2.76795 6.17576 2.59073 6.17483 2.4062C6.17393 2.22159 6.09924 2.0451 5.96725 1.91585ZM1.59652 5.31927C1.45805 5.04025 1.38406 4.7315 1.38246 4.41076C1.37945 3.84303 1.60203 3.30569 2.00941 2.8983C2.41586 2.49209 2.9532 2.28909 3.49351 2.28909C3.80941 2.28909 4.12647 2.35842 4.41862 2.49713L1.59652 5.31927Z" fill="#0D2D31"/>
<path d="M18.9679 1.92069C17.62 0.572995 15.406 0.57069 14.0325 1.91561C13.9007 2.04486 13.8258 2.22139 13.8249 2.40592C13.8239 2.59049 13.897 2.76791 14.0274 2.8983L17.9905 6.86141C18.1253 6.99645 18.3023 7.06395 18.4792 7.06395C18.6539 7.06395 18.8285 6.99828 18.9629 6.86625C19.6269 6.21625 19.9951 5.34669 20 4.41786C20.0048 3.47806 19.6382 2.59119 18.9679 1.92069ZM18.4034 5.31927L15.5813 2.49717C16.3735 2.12111 17.3465 2.25455 17.9906 2.89853C18.3979 3.30591 18.6205 3.84298 18.6175 4.41099C18.6159 4.73149 18.5419 5.04048 18.4034 5.31927Z" fill="#0D2D31"/>
</g>
<defs>
<clipPath id="clip0">
<rect width="20" height="20" fill="white"/>
</clipPath>
</defs>
</svg>
