<svg height="512" viewBox="0 0 64 64" width="512" xmlns="http://www.w3.org/2000/svg"><g id="outline"><path d="m61 2h-58a1 1 0 0 0 -1 1v58a1 1 0 0 0 1 1h58a1 1 0 0 0 1-1v-58a1 1 0 0 0 -1-1zm-1 58h-56v-6h56zm0-8h-56v-48h56z"/><path d="m7 50h50a1 1 0 0 0 1-1v-42a1 1 0 0 0 -1-1h-50a1 1 0 0 0 -1 1v42a1 1 0 0 0 1 1zm49-2h-21v-15h7v3h2v-3h12zm-5.85-29c1.293 0 1.85 1.518 1.85 2 0 1.74-1.159 2-1.85 2h-13.3c-1.15 0-1.85-.135-1.85-2a1.908 1.908 0 0 1 1.85-2 1 1 0 0 0 1-1 1.981 1.981 0 0 1 1.85-2c.521 0 .521 0 1.174.688a1 1 0 0 0 1.7-.464 2.652 2.652 0 0 1 2.826-2.224c1.811 0 3.75 1.206 3.75 3v1a1 1 0 0 0 1 1zm-15.15 5.708a4.937 4.937 0 0 0 1.85.292h13.3a3.717 3.717 0 0 0 3.85-4 4.309 4.309 0 0 0 -2.85-3.86v-.14c0-3.088-2.984-5-5.75-5a4.619 4.619 0 0 0 -4.215 2.311 2.815 2.815 0 0 0 -1.485-.311 3.951 3.951 0 0 0 -3.75 3.11 3.734 3.734 0 0 0 -.95.4v-9.51h21v19h-21zm-27-16.708h21v7.537a3.43 3.43 0 0 0 -.85-.4v-.137c0-3.088-2.984-5-5.75-5a4.619 4.619 0 0 0 -4.215 2.311 2.815 2.815 0 0 0 -1.485-.311 3.951 3.951 0 0 0 -3.75 3.11 3.979 3.979 0 0 0 -2.95 3.89c0 4 2.9 4 3.85 4h13.3a4.055 4.055 0 0 0 1.85-.434v4.434h-3v-2h-2v2h-8v-2h-2v2h-6zm19.15 9c1.293 0 1.85 1.518 1.85 2 0 1.74-1.159 2-1.85 2h-13.3c-1.15 0-1.85-.135-1.85-2a1.908 1.908 0 0 1 1.85-2 1 1 0 0 0 1-1 1.981 1.981 0 0 1 1.85-2c.521 0 .521 0 1.174.688a1 1 0 0 0 1.7-.464 2.652 2.652 0 0 1 2.826-2.224c1.811 0 3.75 1.206 3.75 3v1a1 1 0 0 0 1 1zm-19.15 12h22a1 1 0 0 0 1-1v-20h2v20a1 1 0 0 0 1 1h22v2h-22a1 1 0 0 0 -1 1v16h-2v-16a1 1 0 0 0 -1-1h-22zm0 4h7v3h2v-3h7v3h2v-3h3v15h-21z"/><path d="m19 42h2v4h-2z"/><path d="m24 41h2v4h-2z"/><path d="m14 39h2v4h-2z"/><path d="m19 35h2v4h-2z"/><path d="m46 42h2v4h-2z"/><path d="m41 39h2v4h-2z"/><path d="m46 35h2v4h-2z"/></g></svg>